# xmcd
#
# Track frame offsets: 
#        150
#        13174
#        33633
#        46689
#        70254
#        84641
#        106166
#        121441
#        137399
#        151775
#        169503
#
# Disc length: 2411 seconds
#
# Revision: 0
# Processed by: cddbd v1.5.2PL0 Copyright (c) Steve Scherf et al.
# Submitted via: ExactAudioCopy v1.0b3
#
DISCID=8109690b
DTITLE=Planet Full of Blues - Hard Landing
DYEAR=2014
DGENRE=Blues-Rock
TTITLE0=Big Mouth
TTITLE1=So Special
TTITLE2=Mashed Potatoes and Gravy
TTITLE3=Open Your Eyes
TTITLE4=Busboy
TTITLE5=I Had A Dream
TTITLE6=Big Bright Light
TTITLE7=Sunday Drive
TTITLE8=Felt Like A Tourist
TTITLE9=Snake Lady
TTITLE10=Shugrue Shuffle
EXTD=
EXTT0=
EXTT1=
EXTT2=
EXTT3=
EXTT4=
EXTT5=
EXTT6=
EXTT7=
EXTT8=
EXTT9=
EXTT10=
PLAYORDER=
